<?xml version="1.0" standalone="no"?>
<!DOCTYPE svg PUBLIC "-//W3C//DTD SVG 20010904//EN"
 "http://www.w3.org/TR/2001/REC-SVG-20010904/DTD/svg10.dtd">
<svg version="1.0" xmlns="http://www.w3.org/2000/svg" preserveAspectRatio="xMidYMid meet">

<g transform="translate(0.000000,490.000000) scale(0.100000,-0.100000)"
fill="#000000" stroke="none">
<path d="M5064 3928 c-37 -32 -38 -33 -124 -30 -77 3 -98 0 -180 -28 l-92 -32
-91 14 c-70 11 -156 14 -354 10 l-263 -4 0 -1219 0 -1219 283 2 282 3 3 557 2
557 38 10 c20 5 73 17 118 25 101 19 149 38 333 131 81 41 157 75 169 75 12 0
55 -11 97 -24 59 -19 83 -22 108 -15 50 14 55 20 58 76 3 40 1 49 -8 41 -18
-15 -80 20 -117 65 -34 42 -31 52 10 37 16 -7 53 -18 83 -26 50 -13 57 -12
102 8 46 19 52 26 89 105 65 139 66 195 5 212 -48 13 -155 74 -181 103 -50 56
-83 124 -90 183 -9 86 -46 148 -108 186 -28 18 -54 37 -59 43 -4 6 -4 41 -1
77 4 42 2 74 -5 88 -18 32 -63 28 -107 -11z"/>

</g>
</svg>
